<svg width="75" height="95" viewBox="0 0 75 95" fill="none" xmlns="http://www.w3.org/2000/svg">
<path d="M34.0755 74.6329C24.5415 67.9045 17.8188 57.901 15.1906 46.5316C12.5624 35.1623 14.2126 23.2233 19.8264 12.9932C22.4589 10.8468 25.3628 9.05685 28.4632 7.6696C43.3936 29.1935 54.367 53.207 60.8682 78.5828C57.2858 80.2285 53.4755 81.3238 49.566 81.8316C44.0106 80.3858 38.7626 77.947 34.0755 74.6329Z" fill="url(#paint0_radial_61_2752)"/>
<path d="M34.0755 74.6329C24.5415 67.9045 17.8188 57.901 15.1906 46.5316C12.5624 35.1623 14.2126 23.2233 19.8264 12.9932C22.4589 10.8468 25.3628 9.05685 28.4632 7.6696C43.3936 29.1935 54.367 53.207 60.8682 78.5828C57.2858 80.2285 53.4755 81.3238 49.566 81.8316C44.0106 80.3858 38.7626 77.947 34.0755 74.6329Z" fill="url(#paint1_radial_61_2752)"/>
<g filter="url(#filter0_f_61_2752)">
<path d="M24.566 7.42299C24.2986 7.78873 24.1516 8.22863 24.1454 8.68168C24.1393 9.13472 24.2742 9.57845 24.5316 9.95132C39.769 31.6956 50.8943 56.0472 57.3568 81.8004C57.5 82.3624 57.8606 82.8444 58.3592 83.1405C58.8578 83.4366 59.4536 83.5225 60.0156 83.3794C60.5775 83.2362 61.0596 82.8756 61.3557 82.377C61.6518 81.8784 61.7377 81.2826 61.5945 80.7206C55.0158 54.4512 43.6732 29.6117 28.1302 7.4357C27.9686 7.19606 27.761 6.9909 27.5194 6.83214C27.2779 6.67338 27.0072 6.56417 26.7231 6.51085C26.4391 6.45754 26.1472 6.46118 25.8645 6.52156C25.5819 6.58195 25.314 6.69787 25.0765 6.86261C24.875 7.0182 24.7022 7.20785 24.566 7.42299Z" fill="url(#paint2_linear_61_2752)"/>
</g>
<path style="mix-blend-mode:overlay" d="M24.566 7.42299C24.2986 7.78873 24.1516 8.22863 24.1454 8.68168C24.1393 9.13472 24.2742 9.57845 24.5316 9.95132C39.769 31.6956 50.8943 56.0472 57.3568 81.8004C57.5 82.3624 57.8606 82.8444 58.3592 83.1405C58.8578 83.4366 59.4536 83.5225 60.0156 83.3794C60.5775 83.2362 61.0596 82.8756 61.3557 82.377C61.6518 81.8784 61.7377 81.2826 61.5945 80.7206C55.0158 54.4512 43.6732 29.6117 28.1302 7.4357C27.9686 7.19606 27.761 6.9909 27.5194 6.83214C27.2779 6.67338 27.0072 6.56417 26.7231 6.51085C26.4391 6.45754 26.1472 6.46118 25.8645 6.52156C25.5819 6.58195 25.314 6.69787 25.0765 6.86261C24.875 7.0182 24.7022 7.20785 24.566 7.42299Z" fill="url(#paint3_linear_61_2752)"/>
<g style="mix-blend-mode:overlay">
<path style="mix-blend-mode:overlay" d="M24.566 7.42299C24.2986 7.78873 24.1516 8.22863 24.1454 8.68168C24.1393 9.13472 24.2742 9.57845 24.5316 9.95132C39.769 31.6956 50.8943 56.0472 57.3568 81.8004C57.5 82.3624 57.8606 82.8444 58.3592 83.1405C58.8578 83.4366 59.4536 83.5225 60.0156 83.3794C60.5775 83.2362 61.0596 82.8756 61.3557 82.377C61.6518 81.8784 61.7377 81.2826 61.5945 80.7206C55.0158 54.4512 43.6732 29.6117 28.1302 7.4357C27.9686 7.19606 27.761 6.9909 27.5194 6.83214C27.2779 6.67338 27.0072 6.56417 26.7231 6.51085C26.4391 6.45754 26.1472 6.46118 25.8645 6.52156C25.5819 6.58195 25.314 6.69787 25.0765 6.86261C24.875 7.0182 24.7022 7.20785 24.566 7.42299Z" fill="url(#paint4_linear_61_2752)"/>
</g>
<g clip-path="url(#clip0_61_2752)" filter="url(#filter1_d_61_2752)">
<g filter="url(#filter2_d_61_2752)">
<path fill-rule="evenodd" clip-rule="evenodd" d="M38.0798 41.8L21.9998 57.8345L13.7598 50.341L10.7998 53.7252L22.2398 64.2L22.3198 64.1194L41.1998 44.7813L38.0798 41.8Z" fill="url(#paint5_linear_61_2752)"/>
</g>
</g>
<defs>
<filter id="filter0_f_61_2752" x="20.871" y="3.19935" width="44.0652" height="83.5218" filterUnits="userSpaceOnUse" color-interpolation-filters="sRGB">
<feFlood flood-opacity="0" result="BackgroundImageFix"/>
<feBlend mode="normal" in="SourceGraphic" in2="BackgroundImageFix" result="shape"/>
<feGaussianBlur stdDeviation="1.63702" result="effect1_foregroundBlur_61_2752"/>
</filter>
<filter id="filter1_d_61_2752" x="8" y="37" width="36" height="36" filterUnits="userSpaceOnUse" color-interpolation-filters="sRGB">
<feFlood flood-opacity="0" result="BackgroundImageFix"/>
<feColorMatrix in="SourceAlpha" type="matrix" values="0 0 0 0 0 0 0 0 0 0 0 0 0 0 0 0 0 0 127 0" result="hardAlpha"/>
<feOffset dy="2"/>
<feGaussianBlur stdDeviation="1"/>
<feColorMatrix type="matrix" values="0 0 0 0 0 0 0 0 0 0 0 0 0 0 0 0 0 0 0.75 0"/>
<feBlend mode="normal" in2="BackgroundImageFix" result="effect1_dropShadow_61_2752"/>
<feBlend mode="normal" in="SourceGraphic" in2="effect1_dropShadow_61_2752" result="shape"/>
</filter>
<filter id="filter2_d_61_2752" x="8.7998" y="41.8" width="34.3999" height="26.4" filterUnits="userSpaceOnUse" color-interpolation-filters="sRGB">
<feFlood flood-opacity="0" result="BackgroundImageFix"/>
<feColorMatrix in="SourceAlpha" type="matrix" values="0 0 0 0 0 0 0 0 0 0 0 0 0 0 0 0 0 0 127 0" result="hardAlpha"/>
<feOffset dy="2"/>
<feGaussianBlur stdDeviation="1"/>
<feComposite in2="hardAlpha" operator="out"/>
<feColorMatrix type="matrix" values="0 0 0 0 0 0 0 0 0 0 0 0 0 0 0 0 0 0 0.75 0"/>
<feBlend mode="normal" in2="BackgroundImageFix" result="effect1_dropShadow_61_2752"/>
<feBlend mode="normal" in="SourceGraphic" in2="effect1_dropShadow_61_2752" result="shape"/>
</filter>
<radialGradient id="paint0_radial_61_2752" cx="0" cy="0" r="1" gradientUnits="userSpaceOnUse" gradientTransform="translate(61.4441 35.8251) rotate(-54.7914) scale(47.4954 47.4954)">
<stop offset="0"/>
<stop offset="0.96" stop-opacity="0"/>
</radialGradient>
<radialGradient id="paint1_radial_61_2752" cx="0" cy="0" r="1" gradientUnits="userSpaceOnUse" gradientTransform="translate(61.4441 35.8251) rotate(-54.7914) scale(47.4954 47.4954)">
<stop offset="0" stop-color="#00FF57"/>
<stop offset="0.16" stop-color="#00FF57" stop-opacity="0.78"/>
<stop offset="0.38" stop-color="#00FF57" stop-opacity="0.5"/>
<stop offset="0.58" stop-color="#00FF57" stop-opacity="0.29"/>
<stop offset="0.75" stop-color="#00FF57" stop-opacity="0.13"/>
<stop offset="0.88" stop-color="#00FF57" stop-opacity="0.04"/>
<stop offset="0.96" stop-color="#00FF57" stop-opacity="0"/>
</radialGradient>
<linearGradient id="paint2_linear_61_2752" x1="26.8335" y1="6.01489" x2="62.1336" y2="82.4414" gradientUnits="userSpaceOnUse">
<stop offset="0" stop-opacity="0"/>
<stop offset="0.21875"/>
<stop offset="0.786458"/>
<stop offset="1" stop-opacity="0"/>
</linearGradient>
<linearGradient id="paint3_linear_61_2752" x1="60.4619" y1="83.2136" x2="26.8326" y2="6.01532" gradientUnits="userSpaceOnUse">
<stop offset="0" stop-color="#099E3C" stop-opacity="0"/>
<stop offset="0.411458" stop-color="#00FF57"/>
<stop offset="0.588542" stop-color="#00FF57"/>
<stop offset="1" stop-color="#099E3C" stop-opacity="0"/>
</linearGradient>
<linearGradient id="paint4_linear_61_2752" x1="60.7583" y1="83.0766" x2="26.8326" y2="6.01532" gradientUnits="userSpaceOnUse">
<stop offset="0.0625" stop-color="#099E3C" stop-opacity="0"/>
<stop offset="0.5" stop-color="#00FF57"/>
<stop offset="0.9375" stop-color="#099E3C" stop-opacity="0"/>
</linearGradient>
<linearGradient id="paint5_linear_61_2752" x1="25.9998" y1="41.8" x2="25.9998" y2="64.2" gradientUnits="userSpaceOnUse">
<stop offset="0" stop-color="#00FF57"/>
<stop offset="1" stop-color="#007C66"/>
</linearGradient>
<clipPath id="clip0_61_2752">
<rect width="32" height="32" fill="white" transform="translate(10 37)"/>
</clipPath>
</defs>
</svg>
