<svg width="71" height="90" viewBox="0 0 71 90" fill="none" xmlns="http://www.w3.org/2000/svg">
<g clip-path="url(#clip0_61_2722)">
<path d="M32.2648 19.771C42.3703 25.6061 49.9733 34.958 53.6228 46.0418C57.2723 57.1256 56.7127 69.1651 52.0508 79.8626C49.6241 82.2391 46.8946 84.2853 43.9329 85.9483C27.1102 65.8686 14.0021 42.9505 5.22413 18.2697C8.64231 16.3056 12.3375 14.8689 16.1847 14.0083C21.8484 14.9437 27.2962 16.896 32.2648 19.771Z" fill="url(#paint0_radial_61_2722)"/>
<path d="M32.2648 19.771C42.3703 25.6061 49.9733 34.958 53.6228 46.0418C57.2723 57.1256 56.7127 69.1651 52.0508 79.8626C49.6241 82.2391 46.8946 84.2853 43.9329 85.9483C27.1102 65.8686 14.0021 42.9505 5.22413 18.2697C8.64231 16.3056 12.3375 14.8689 16.1847 14.0083C21.8484 14.9437 27.2962 16.896 32.2648 19.771Z" fill="url(#paint1_radial_61_2722)"/>
<g filter="url(#filter0_f_61_2722)">
<path d="M47.8361 85.8401C48.0693 85.4516 48.1757 85.0002 48.1407 84.5484C48.1057 84.0967 47.931 83.6671 47.6408 83.3191C30.4924 63.0479 17.2023 39.8068 8.42854 14.7466C8.23493 14.2 7.8321 13.7527 7.30867 13.503C6.78524 13.2534 6.18409 13.2219 5.63746 13.4156C5.09082 13.6092 4.64348 14.012 4.39386 14.5354C4.14423 15.0588 4.11276 15.66 4.30637 16.2066C13.2428 41.7703 26.7935 65.4776 44.2855 86.151C44.4682 86.375 44.6936 86.5605 44.9485 86.6966C45.2035 86.8328 45.4829 86.917 45.7707 86.9443C46.0584 86.9716 46.3488 86.9415 46.6248 86.8557C46.9008 86.7699 47.157 86.6301 47.3786 86.4445C47.5652 86.2713 47.72 86.0667 47.8361 85.8401Z" fill="url(#paint2_linear_61_2722)"/>
</g>
<path style="mix-blend-mode:overlay" d="M47.8361 85.8401C48.0693 85.4516 48.1757 85.0002 48.1407 84.5484C48.1057 84.0967 47.931 83.6671 47.6408 83.3191C30.4924 63.0479 17.2023 39.8068 8.42854 14.7466C8.23493 14.2 7.8321 13.7527 7.30867 13.503C6.78524 13.2534 6.18409 13.2219 5.63746 13.4156C5.09082 13.6092 4.64348 14.012 4.39386 14.5354C4.14423 15.0588 4.11276 15.66 4.30637 16.2066C13.2428 41.7703 26.7935 65.4776 44.2855 86.151C44.4682 86.375 44.6936 86.5605 44.9485 86.6966C45.2035 86.8328 45.4829 86.917 45.7707 86.9443C46.0584 86.9716 46.3488 86.9415 46.6248 86.8557C46.9008 86.7699 47.157 86.6301 47.3786 86.4445C47.5652 86.2713 47.72 86.0667 47.8361 85.8401Z" fill="url(#paint3_linear_61_2722)"/>
<g style="mix-blend-mode:overlay">
<path style="mix-blend-mode:overlay" d="M47.8361 85.8401C48.0693 85.4516 48.1757 85.0002 48.1407 84.5484C48.1057 84.0967 47.931 83.6671 47.6408 83.3191C30.4924 63.0479 17.2023 39.8068 8.42854 14.7466C8.23493 14.2 7.8321 13.7527 7.30867 13.503C6.78524 13.2534 6.18409 13.2219 5.63746 13.4156C5.09082 13.6092 4.64348 14.012 4.39386 14.5354C4.14423 15.0588 4.11276 15.66 4.30637 16.2066C13.2428 41.7703 26.7935 65.4776 44.2855 86.151C44.4682 86.375 44.6936 86.5605 44.9485 86.6966C45.2035 86.8328 45.4829 86.917 45.7707 86.9443C46.0584 86.9716 46.3488 86.9415 46.6248 86.8557C46.9008 86.7699 47.157 86.6301 47.3786 86.4445C47.5652 86.2713 47.72 86.0667 47.8361 85.8401Z" fill="url(#paint4_linear_61_2722)"/>
</g>
<g clip-path="url(#clip1_61_2722)" filter="url(#filter1_d_61_2722)">
<g filter="url(#filter2_d_61_2722)">
<path fill-rule="evenodd" clip-rule="evenodd" d="M54.2126 34.88L50.9326 31.6L41.8126 40.8L32.6926 31.6L29.4126 34.88L38.6126 44L29.4126 53.12L32.6926 56.4L41.8126 47.2L50.9326 56.4L54.2126 53.12L45.0126 44L54.2126 34.88Z" fill="url(#paint5_linear_61_2722)"/>
</g>
</g>
</g>
<defs>
<filter id="filter0_f_61_2722" x="0.907114" y="10.0161" width="50.5144" height="80.212" filterUnits="userSpaceOnUse" color-interpolation-filters="sRGB">
<feFlood flood-opacity="0" result="BackgroundImageFix"/>
<feBlend mode="normal" in="SourceGraphic" in2="BackgroundImageFix" result="shape"/>
<feGaussianBlur stdDeviation="1.63702" result="effect1_foregroundBlur_61_2722"/>
</filter>
<filter id="filter1_d_61_2722" x="23.8125" y="28" width="36" height="36" filterUnits="userSpaceOnUse" color-interpolation-filters="sRGB">
<feFlood flood-opacity="0" result="BackgroundImageFix"/>
<feColorMatrix in="SourceAlpha" type="matrix" values="0 0 0 0 0 0 0 0 0 0 0 0 0 0 0 0 0 0 127 0" result="hardAlpha"/>
<feOffset dy="2"/>
<feGaussianBlur stdDeviation="1"/>
<feColorMatrix type="matrix" values="0 0 0 0 0 0 0 0 0 0 0 0 0 0 0 0 0 0 0.75 0"/>
<feBlend mode="normal" in2="BackgroundImageFix" result="effect1_dropShadow_61_2722"/>
<feBlend mode="normal" in="SourceGraphic" in2="effect1_dropShadow_61_2722" result="shape"/>
</filter>
<filter id="filter2_d_61_2722" x="27.4126" y="31.6" width="28.7998" height="28.8" filterUnits="userSpaceOnUse" color-interpolation-filters="sRGB">
<feFlood flood-opacity="0" result="BackgroundImageFix"/>
<feColorMatrix in="SourceAlpha" type="matrix" values="0 0 0 0 0 0 0 0 0 0 0 0 0 0 0 0 0 0 127 0" result="hardAlpha"/>
<feOffset dy="2"/>
<feGaussianBlur stdDeviation="1"/>
<feComposite in2="hardAlpha" operator="out"/>
<feColorMatrix type="matrix" values="0 0 0 0 0 0 0 0 0 0 0 0 0 0 0 0 0 0 0.75 0"/>
<feBlend mode="normal" in2="BackgroundImageFix" result="effect1_dropShadow_61_2722"/>
<feBlend mode="normal" in="SourceGraphic" in2="effect1_dropShadow_61_2722" result="shape"/>
</filter>
<radialGradient id="paint0_radial_61_2722" cx="0" cy="0" r="1" gradientUnits="userSpaceOnUse" gradientTransform="translate(8.53223 60.903) rotate(120) scale(47.4954 47.4954)">
<stop offset="0"/>
<stop offset="0.96" stop-opacity="0"/>
</radialGradient>
<radialGradient id="paint1_radial_61_2722" cx="0" cy="0" r="1" gradientUnits="userSpaceOnUse" gradientTransform="translate(8.53223 60.903) rotate(120) scale(47.4954 47.4954)">
<stop offset="0" stop-color="#FD004C"/>
<stop offset="0.16" stop-color="#FD004C" stop-opacity="0.78"/>
<stop offset="0.38" stop-color="#FD004C" stop-opacity="0.5"/>
<stop offset="0.58" stop-color="#FD004C" stop-opacity="0.29"/>
<stop offset="0.75" stop-color="#FD004C" stop-opacity="0.13"/>
<stop offset="0.88" stop-color="#FD004C" stop-opacity="0.04"/>
<stop offset="0.96" stop-color="#FD004C" stop-opacity="0"/>
</radialGradient>
<linearGradient id="paint2_linear_61_2722" x1="45.7058" y1="87.4482" x2="3.61334" y2="14.5419" gradientUnits="userSpaceOnUse">
<stop offset="0" stop-opacity="0"/>
<stop offset="0.21875"/>
<stop offset="0.786458"/>
<stop offset="1" stop-opacity="0"/>
</linearGradient>
<linearGradient id="paint3_linear_61_2722" x1="5.20802" y1="13.6212" x2="45.7067" y2="87.4477" gradientUnits="userSpaceOnUse">
<stop offset="0" stop-color="#B10303" stop-opacity="0"/>
<stop offset="0.411458" stop-color="#FD004C"/>
<stop offset="0.588542" stop-color="#FD004C"/>
<stop offset="1" stop-color="#B10303" stop-opacity="0"/>
</linearGradient>
<linearGradient id="paint4_linear_61_2722" x1="4.92526" y1="13.7844" x2="45.7067" y2="87.4477" gradientUnits="userSpaceOnUse">
<stop offset="0.0625" stop-color="#B10303" stop-opacity="0"/>
<stop offset="0.5" stop-color="#FD004C"/>
<stop offset="0.9375" stop-color="#B10303" stop-opacity="0"/>
</linearGradient>
<linearGradient id="paint5_linear_61_2722" x1="41.8126" y1="31.6" x2="41.8126" y2="56.4" gradientUnits="userSpaceOnUse">
<stop offset="0" stop-color="#FD004C"/>
<stop offset="1" stop-color="#AB0000"/>
</linearGradient>
<clipPath id="clip0_61_2722">
<rect width="71" height="90" fill="white"/>
</clipPath>
<clipPath id="clip1_61_2722">
<rect width="32" height="32" fill="white" transform="translate(25.8125 28)"/>
</clipPath>
</defs>
</svg>
