<svg width="68" height="85" viewBox="0 0 68 85" fill="none" xmlns="http://www.w3.org/2000/svg">
<path d="M35.5922 18.8759C25.9102 23.9788 18.8054 32.4682 15.6337 42.7238C12.4621 52.9794 13.4458 64.2831 18.3971 74.4776C20.8589 76.7927 23.6051 78.8092 26.5648 80.4749V80.4749C42.3074 62.2653 54.3105 41.2609 62.0107 18.4478V18.4478C58.5932 16.4833 54.9236 15.0031 51.126 14.0573C45.6151 14.7289 40.3524 16.3614 35.5922 18.8759V18.8759Z" fill="url(#paint0_radial_0_1)"/>
<path d="M35.5922 18.8759C25.9102 23.9788 18.8054 32.4682 15.6337 42.7238C12.4621 52.9794 13.4458 64.2831 18.3971 74.4776C20.8589 76.7927 23.6051 78.8092 26.5648 80.4749V80.4749C42.3074 62.2653 54.3105 41.2609 62.0107 18.4478V18.4478C58.5932 16.4833 54.9236 15.0031 51.126 14.0573C45.6151 14.7289 40.3524 16.3614 35.5922 18.8759V18.8759Z" fill="url(#paint1_radial_0_1)"/>
<g filter="url(#filter0_f_0_1)">
<path d="M22.7396 80.2322C22.4973 79.8597 22.3767 79.4328 22.3947 79.0107C22.4126 78.5886 22.568 78.1922 22.8395 77.8766C38.8941 59.4992 51.0637 38.1988 58.746 15.03C58.9158 14.5247 59.294 14.1201 59.7974 13.9051C60.3008 13.6901 60.8882 13.6823 61.4303 13.8836C61.9725 14.0848 62.425 14.4785 62.6883 14.9781C62.9517 15.4777 63.0043 16.0423 62.8345 16.5476C55.0112 40.1824 42.6033 61.9103 26.2269 80.6522C26.0562 80.8555 25.8422 81.0211 25.5976 81.1395C25.3529 81.2579 25.0824 81.3267 24.8016 81.3419C24.5209 81.357 24.2356 81.3183 23.9623 81.2279C23.689 81.1375 23.433 80.9972 23.2094 80.8153C23.0205 80.6461 22.8614 80.4488 22.7396 80.2322Z" fill="url(#paint2_linear_0_1)"/>
</g>
<path style="mix-blend-mode:overlay" d="M22.7396 80.2322C22.4973 79.8597 22.3767 79.4328 22.3947 79.0107C22.4126 78.5886 22.568 78.1922 22.8395 77.8766C38.8941 59.4992 51.0637 38.1988 58.746 15.03C58.9158 14.5247 59.294 14.1201 59.7974 13.9051C60.3008 13.6901 60.8882 13.6823 61.4303 13.8836C61.9725 14.0848 62.425 14.4785 62.6883 14.9781C62.9517 15.4777 63.0043 16.0423 62.8345 16.5476C55.0112 40.1824 42.6033 61.9103 26.2269 80.6522C26.0562 80.8555 25.8422 81.0211 25.5976 81.1395C25.3529 81.2579 25.0824 81.3267 24.8016 81.3419C24.5209 81.357 24.2356 81.3183 23.9623 81.2279C23.689 81.1375 23.433 80.9972 23.2094 80.8153C23.0205 80.6461 22.8614 80.4488 22.7396 80.2322Z" fill="url(#paint3_linear_0_1)"/>
<g style="mix-blend-mode:overlay">
<path style="mix-blend-mode:overlay" d="M22.7396 80.2322C22.4973 79.8597 22.3767 79.4328 22.3947 79.0107C22.4126 78.5886 22.568 78.1922 22.8395 77.8766C38.8941 59.4992 51.0637 38.1988 58.746 15.03C58.9158 14.5247 59.294 14.1201 59.7974 13.9051C60.3008 13.6901 60.8882 13.6823 61.4303 13.8836C61.9725 14.0848 62.425 14.4785 62.6883 14.9781C62.9517 15.4777 63.0043 16.0423 62.8345 16.5476C55.0112 40.1824 42.6033 61.9103 26.2269 80.6522C26.0562 80.8555 25.8422 81.0211 25.5976 81.1395C25.3529 81.2579 25.0824 81.3267 24.8016 81.3419C24.5209 81.357 24.2356 81.3183 23.9623 81.2279C23.689 81.1375 23.433 80.9972 23.2094 80.8153C23.0205 80.6461 22.8614 80.4488 22.7396 80.2322Z" fill="url(#paint4_linear_0_1)"/>
</g>
<g opacity="0.96" clip-path="url(#clip0_0_1)">
<g filter="url(#filter1_d_0_1)">
<path fill-rule="evenodd" clip-rule="evenodd" d="M13 38.4128H35.1647V42.5802H13V38.4128Z" fill="url(#paint5_linear_0_1)"/>
<path d="M33.1963 40.5007L23.7657 50.0578L26.6689 53L39 40.4979L26.6675 28L23.7643 30.9422L33.1963 40.5007Z" fill="url(#paint6_linear_0_1)"/>
</g>
</g>
<defs>
<filter id="filter0_f_0_1" x="19.3931" y="10.738" width="46.5391" height="73.6071" filterUnits="userSpaceOnUse" color-interpolation-filters="sRGB">
<feFlood flood-opacity="0" result="BackgroundImageFix"/>
<feBlend mode="normal" in="SourceGraphic" in2="BackgroundImageFix" result="shape"/>
<feGaussianBlur stdDeviation="1.5" result="effect1_foregroundBlur_0_1"/>
</filter>
<filter id="filter1_d_0_1" x="11" y="28" width="30" height="29" filterUnits="userSpaceOnUse" color-interpolation-filters="sRGB">
<feFlood flood-opacity="0" result="BackgroundImageFix"/>
<feColorMatrix in="SourceAlpha" type="matrix" values="0 0 0 0 0 0 0 0 0 0 0 0 0 0 0 0 0 0 127 0" result="hardAlpha"/>
<feOffset dy="2"/>
<feGaussianBlur stdDeviation="1"/>
<feComposite in2="hardAlpha" operator="out"/>
<feColorMatrix type="matrix" values="0 0 0 0 0 0 0 0 0 0 0 0 0 0 0 0 0 0 0.75 0"/>
<feBlend mode="normal" in2="BackgroundImageFix" result="effect1_dropShadow_0_1"/>
<feBlend mode="normal" in="SourceGraphic" in2="effect1_dropShadow_0_1" result="shape"/>
</filter>
<radialGradient id="paint0_radial_0_1" cx="0" cy="0" r="1" gradientUnits="userSpaceOnUse" gradientTransform="translate(60.3155 58.2841) rotate(57.8823) scale(46.5299 44.4188)">
<stop offset="0"/>
<stop offset="0.96" stop-opacity="0"/>
</radialGradient>
<radialGradient id="paint1_radial_0_1" cx="0" cy="0" r="1" gradientUnits="userSpaceOnUse" gradientTransform="translate(60.3155 58.2841) rotate(57.8823) scale(46.5299 44.4188)">
<stop offset="0" stop-color="#0096FF"/>
<stop offset="0.16" stop-color="#0096FF" stop-opacity="0.78"/>
<stop offset="0.38" stop-color="#0096FF" stop-opacity="0.5"/>
<stop offset="0.58" stop-color="#0096FF" stop-opacity="0.29"/>
<stop offset="0.75" stop-color="#0096FF" stop-opacity="0.13"/>
<stop offset="0.88" stop-color="#0096FF" stop-opacity="0.04"/>
<stop offset="0.96" stop-color="#0096FF" stop-opacity="0"/>
</radialGradient>
<linearGradient id="paint2_linear_0_1" x1="24.8834" y1="81.8165" x2="63.4527" y2="15.0125" gradientUnits="userSpaceOnUse">
<stop offset="0" stop-opacity="0"/>
<stop offset="0.21875"/>
<stop offset="0.786458"/>
<stop offset="1" stop-opacity="0"/>
</linearGradient>
<linearGradient id="paint3_linear_0_1" x1="61.8582" y1="14.0918" x2="24.6243" y2="81.6737" gradientUnits="userSpaceOnUse">
<stop offset="0" stop-color="#035A97" stop-opacity="0"/>
<stop offset="0.411458" stop-color="#0096FF"/>
<stop offset="0.588542" stop-color="#0096FF"/>
<stop offset="1" stop-color="#035A97" stop-opacity="0"/>
</linearGradient>
<linearGradient id="paint4_linear_0_1" x1="62.1409" y1="14.2551" x2="24.6705" y2="81.6982" gradientUnits="userSpaceOnUse">
<stop offset="0.0625" stop-color="#035A97" stop-opacity="0"/>
<stop offset="0.5" stop-color="#0096FF"/>
<stop offset="0.9375" stop-color="#035A97" stop-opacity="0"/>
</linearGradient>
<linearGradient id="paint5_linear_0_1" x1="26" y1="53" x2="26" y2="28" gradientUnits="userSpaceOnUse">
<stop offset="0" stop-color="#0096FF"/>
<stop offset="1" stop-color="#0036BF"/>
</linearGradient>
<linearGradient id="paint6_linear_0_1" x1="26" y1="53" x2="26" y2="28" gradientUnits="userSpaceOnUse">
<stop offset="0" stop-color="#0096FF"/>
<stop offset="1" stop-color="#0036BF"/>
</linearGradient>
<clipPath id="clip0_0_1">
<rect width="29" height="29" fill="white" transform="matrix(-1 0 0 1 42 28)"/>
</clipPath>
</defs>
</svg>
