<svg width="65" height="65" viewBox="0 0 65 65" fill="none" xmlns="http://www.w3.org/2000/svg">
<g filter="url(#filter0_d_42458_2170)">
<path fill-rule="evenodd" clip-rule="evenodd" d="M57.4167 30.3333C57.4167 44.0944 46.2611 55.25 32.5 55.25C18.7389 55.25 7.58333 44.0944 7.58333 30.3333C7.58333 16.5722 18.7389 5.41666 32.5 5.41666C46.2611 5.41666 57.4167 16.5722 57.4167 30.3333ZM61.75 30.3333C61.75 46.4877 48.6543 59.5833 32.5 59.5833C16.3457 59.5833 3.25 46.4877 3.25 30.3333C3.25 14.179 16.3457 1.08333 32.5 1.08333C48.6543 1.08333 61.75 14.179 61.75 30.3333ZM35.75 14.0833C35.75 15.8783 34.2949 17.3333 32.5 17.3333C30.7051 17.3333 29.25 15.8783 29.25 14.0833C29.25 12.2884 30.7051 10.8333 32.5 10.8333C34.2949 10.8333 35.75 12.2884 35.75 14.0833ZM29.25 22.75H35.75V48.75H29.25V22.75Z" fill="url(#paint0_linear_42458_2170)"/>
</g>
<defs>
<filter id="filter0_d_42458_2170" x="1.08333" y="1.08333" width="62.8333" height="62.8333" filterUnits="userSpaceOnUse" color-interpolation-filters="sRGB">
<feFlood flood-opacity="0" result="BackgroundImageFix"/>
<feColorMatrix in="SourceAlpha" type="matrix" values="0 0 0 0 0 0 0 0 0 0 0 0 0 0 0 0 0 0 127 0" result="hardAlpha"/>
<feOffset dy="2.16667"/>
<feGaussianBlur stdDeviation="1.08333"/>
<feColorMatrix type="matrix" values="0 0 0 0 0 0 0 0 0 0 0 0 0 0 0 0 0 0 0.75 0"/>
<feBlend mode="normal" in2="BackgroundImageFix" result="effect1_dropShadow_42458_2170"/>
<feBlend mode="normal" in="SourceGraphic" in2="effect1_dropShadow_42458_2170" result="shape"/>
</filter>
<linearGradient id="paint0_linear_42458_2170" x1="32.5" y1="1.08333" x2="32.5" y2="59.5833" gradientUnits="userSpaceOnUse">
<stop stop-color="white"/>
<stop offset="1" stop-color="#A1B1BF"/>
</linearGradient>
</defs>
</svg>
