<svg width="65" height="83" viewBox="0 0 65 83" fill="none" xmlns="http://www.w3.org/2000/svg">
<path d="M29.5102 64.893C38.7699 59.5463 45.7365 50.9772 49.0805 40.8211C52.4246 30.665 51.9118 19.6332 47.6402 9.83109C45.4165 7.65351 42.9155 5.7786 40.2017 4.2548V4.2548C24.7871 22.6538 12.7762 43.6536 4.73289 66.2687V66.2687C7.86497 68.0684 11.2509 69.3848 14.7761 70.1734C19.9657 69.3162 24.9575 67.5273 29.5102 64.893V64.893Z" fill="url(#paint0_radial_64_1941)"/>
<path d="M29.5102 64.893C38.7699 59.5463 45.7365 50.9772 49.0805 40.8211C52.4246 30.665 51.9118 19.6332 47.6402 9.83109C45.4165 7.65351 42.9155 5.7786 40.2017 4.2548V4.2548C24.7871 22.6538 12.7762 43.6536 4.73289 66.2687V66.2687C7.86497 68.0684 11.2509 69.3848 14.7761 70.1734C19.9657 69.3162 24.9575 67.5273 29.5102 64.893V64.893Z" fill="url(#paint1_radial_64_1941)"/>
<g filter="url(#filter0_b_64_1941)">
<g filter="url(#filter1_f_64_1941)">
<path d="M43.7783 4.35393C43.9919 4.70992 44.0894 5.12356 44.0574 5.53748C44.0253 5.9514 43.8652 6.34509 43.5993 6.66392C27.8862 25.2385 15.7085 46.5342 7.66912 69.4968C7.49172 69.9977 7.12261 70.4076 6.64299 70.6363C6.16337 70.8651 5.61253 70.8939 5.11165 70.7165C4.61077 70.5391 4.20088 70.17 3.97215 69.6904C3.74341 69.2108 3.71458 68.6599 3.89198 68.159C12.0804 44.735 24.4969 23.0121 40.5249 4.06905C40.6923 3.86381 40.8988 3.69387 41.1324 3.56909C41.366 3.44431 41.6221 3.36717 41.8857 3.34215C42.1494 3.31713 42.4154 3.34473 42.6683 3.42334C42.9212 3.50196 43.156 3.63002 43.359 3.8001C43.53 3.95885 43.6719 4.14628 43.7783 4.35393Z" fill="url(#paint2_linear_64_1941)"/>
</g>
<path style="mix-blend-mode:overlay" d="M43.7783 4.35393C43.9919 4.70992 44.0894 5.12356 44.0574 5.53748C44.0253 5.9514 43.8652 6.34509 43.5993 6.66392C27.8862 25.2385 15.7085 46.5342 7.66912 69.4968C7.49172 69.9977 7.12261 70.4076 6.64299 70.6363C6.16337 70.8651 5.61253 70.8939 5.11165 70.7165C4.61077 70.5391 4.20088 70.17 3.97215 69.6904C3.74341 69.2108 3.71458 68.6599 3.89198 68.159C12.0804 44.735 24.4969 23.0121 40.5249 4.06905C40.6923 3.86381 40.8988 3.69387 41.1324 3.56909C41.366 3.44431 41.6221 3.36717 41.8857 3.34215C42.1494 3.31713 42.4154 3.34473 42.6683 3.42334C42.9212 3.50196 43.156 3.63002 43.359 3.8001C43.53 3.95885 43.6719 4.14628 43.7783 4.35393Z" fill="url(#paint3_linear_64_1941)"/>
<g style="mix-blend-mode:overlay">
<path style="mix-blend-mode:overlay" d="M43.7783 4.35393C43.9919 4.70992 44.0894 5.12356 44.0574 5.53748C44.0253 5.9514 43.8652 6.34509 43.5993 6.66392C27.8862 25.2385 15.7085 46.5342 7.66912 69.4968C7.49172 69.9977 7.12261 70.4076 6.64299 70.6363C6.16337 70.8651 5.61253 70.8939 5.11165 70.7165C4.61077 70.5391 4.20088 70.17 3.97215 69.6904C3.74341 69.2108 3.71458 68.6599 3.89198 68.159C12.0804 44.735 24.4969 23.0121 40.5249 4.06905C40.6923 3.86381 40.8988 3.69387 41.1324 3.56909C41.366 3.44431 41.6221 3.36717 41.8857 3.34215C42.1494 3.31713 42.4154 3.34473 42.6683 3.42334C42.9212 3.50196 43.156 3.63002 43.359 3.8001C43.53 3.95885 43.6719 4.14628 43.7783 4.35393Z" fill="url(#paint4_linear_64_1941)"/>
</g>
</g>
<defs>
<filter id="filter0_b_64_1941" x="-0.2229" y="-0.666809" width="48.2861" height="75.4983" filterUnits="userSpaceOnUse" color-interpolation-filters="sRGB">
<feFlood flood-opacity="0" result="BackgroundImageFix"/>
<feGaussianBlur in="BackgroundImageFix" stdDeviation="2"/>
<feComposite in2="SourceAlpha" operator="in" result="effect1_backgroundBlur_64_1941"/>
<feBlend mode="normal" in="SourceGraphic" in2="effect1_backgroundBlur_64_1941" result="shape"/>
</filter>
<filter id="filter1_f_64_1941" x="0.7771" y="0.333191" width="46.2861" height="73.4983" filterUnits="userSpaceOnUse" color-interpolation-filters="sRGB">
<feFlood flood-opacity="0" result="BackgroundImageFix"/>
<feBlend mode="normal" in="SourceGraphic" in2="BackgroundImageFix" result="shape"/>
<feGaussianBlur stdDeviation="1.5" result="effect1_foregroundBlur_64_1941"/>
</filter>
<radialGradient id="paint0_radial_64_1941" cx="0" cy="0" r="1" gradientUnits="userSpaceOnUse" gradientTransform="translate(7.7641 27.2037) rotate(-120) scale(43.52 43.52)">
<stop offset="0"/>
<stop offset="0.96" stop-opacity="0"/>
</radialGradient>
<radialGradient id="paint1_radial_64_1941" cx="0" cy="0" r="1" gradientUnits="userSpaceOnUse" gradientTransform="translate(7.7641 27.2037) rotate(-120) scale(43.52 43.52)">
<stop offset="0" stop-color="red"/>
<stop offset="0.16" stop-color="red" stop-opacity="0.78"/>
<stop offset="0.38" stop-color="red" stop-opacity="0.5"/>
<stop offset="0.58" stop-color="red" stop-opacity="0.29"/>
<stop offset="0.75" stop-color="red" stop-opacity="0.13"/>
<stop offset="0.88" stop-color="red" stop-opacity="0.04"/>
<stop offset="0.96" stop-color="red" stop-opacity="0"/>
</radialGradient>
<linearGradient id="paint2_linear_64_1941" x1="41.8263" y1="2.8804" x2="3.25695" y2="69.6844" gradientUnits="userSpaceOnUse">
<stop offset="0" stop-opacity="0"/>
<stop offset="0.21875"/>
<stop offset="0.786458"/>
<stop offset="1" stop-opacity="0"/>
</linearGradient>
<linearGradient id="paint3_linear_64_1941" x1="4.71816" y1="70.5281" x2="41.8271" y2="2.88086" gradientUnits="userSpaceOnUse">
<stop offset="0" stop-color="#B2B2B2" stop-opacity="0"/>
<stop offset="0.411458" stop-color="red"/>
<stop offset="0.588542" stop-color="red"/>
<stop offset="1" stop-color="#B2B2B2" stop-opacity="0"/>
</linearGradient>
<linearGradient id="paint4_linear_64_1941" x1="4.45907" y1="70.3785" x2="41.8271" y2="2.88086" gradientUnits="userSpaceOnUse">
<stop offset="0.0625" stop-color="#B2B2B2" stop-opacity="0"/>
<stop offset="0.5" stop-color="red"/>
<stop offset="0.9375" stop-color="#B2B2B2" stop-opacity="0"/>
</linearGradient>
</defs>
</svg>
