<svg width="72" height="91" viewBox="0 0 72 91" fill="none" xmlns="http://www.w3.org/2000/svg">
<path d="M39.1419 20.1686C29.0365 26.0037 21.4335 35.3556 17.784 46.4394C14.1345 57.5232 14.6941 69.5627 19.3559 80.2602C21.7827 82.6367 24.5122 84.6829 27.4738 86.3459C44.2966 66.2662 57.4046 43.3481 66.1826 18.6673C62.7644 16.7032 59.0692 15.2665 55.222 14.4059C49.5583 15.3413 44.1106 17.2937 39.1419 20.1686Z" fill="url(#paint0_radial_64_2134)"/>
<path d="M39.1419 20.1686C29.0365 26.0037 21.4335 35.3556 17.784 46.4394C14.1345 57.5232 14.6941 69.5627 19.3559 80.2602C21.7827 82.6367 24.5122 84.6829 27.4738 86.3459C44.2966 66.2662 57.4046 43.3481 66.1826 18.6673C62.7644 16.7032 59.0692 15.2665 55.222 14.4059C49.5583 15.3413 44.1106 17.2937 39.1419 20.1686Z" fill="url(#paint1_radial_64_2134)"/>
<g filter="url(#filter0_f_64_2134)">
<path d="M23.5691 86.2381C23.336 85.8496 23.2296 85.3982 23.2646 84.9465C23.2996 84.4947 23.4743 84.0651 23.7645 83.7171C40.9129 63.4459 54.203 40.2049 62.9767 15.1447C63.1703 14.598 63.5732 14.1507 64.0966 13.9011C64.62 13.6515 65.2212 13.62 65.7678 13.8136C66.3145 14.0072 66.7618 14.41 67.0114 14.9335C67.261 15.4569 67.2925 16.058 67.0989 16.6047C58.1625 42.1684 44.6118 65.8756 27.1198 86.549C26.9371 86.773 26.7117 86.9585 26.4567 87.0947C26.2018 87.2309 25.9223 87.315 25.6346 87.3423C25.3468 87.3696 25.0565 87.3395 24.7805 87.2537C24.5045 87.1679 24.2483 87.0282 24.0267 86.8426C23.8401 86.6693 23.6852 86.4648 23.5691 86.2381Z" fill="url(#paint2_linear_64_2134)"/>
</g>
<path style="mix-blend-mode:overlay" d="M23.5691 86.2381C23.336 85.8496 23.2296 85.3982 23.2646 84.9465C23.2996 84.4947 23.4743 84.0651 23.7645 83.7171C40.9129 63.4459 54.203 40.2049 62.9767 15.1447C63.1703 14.598 63.5732 14.1507 64.0966 13.9011C64.62 13.6515 65.2212 13.62 65.7678 13.8136C66.3145 14.0072 66.7618 14.41 67.0114 14.9335C67.261 15.4569 67.2925 16.058 67.0989 16.6047C58.1625 42.1684 44.6118 65.8756 27.1198 86.549C26.9371 86.773 26.7117 86.9585 26.4567 87.0947C26.2018 87.2309 25.9223 87.315 25.6346 87.3423C25.3468 87.3696 25.0565 87.3395 24.7805 87.2537C24.5045 87.1679 24.2483 87.0282 24.0267 86.8426C23.8401 86.6693 23.6852 86.4648 23.5691 86.2381Z" fill="url(#paint3_linear_64_2134)"/>
<g style="mix-blend-mode:overlay">
<path style="mix-blend-mode:overlay" d="M23.5691 86.2381C23.336 85.8496 23.2296 85.3982 23.2646 84.9465C23.2996 84.4947 23.4743 84.0651 23.7645 83.7171C40.9129 63.4459 54.203 40.2049 62.9767 15.1447C63.1703 14.598 63.5732 14.1507 64.0966 13.9011C64.62 13.6515 65.2212 13.62 65.7678 13.8136C66.3145 14.0072 66.7618 14.41 67.0114 14.9335C67.261 15.4569 67.2925 16.058 67.0989 16.6047C58.1625 42.1684 44.6118 65.8756 27.1198 86.549C26.9371 86.773 26.7117 86.9585 26.4567 87.0947C26.2018 87.2309 25.9223 87.315 25.6346 87.3423C25.3468 87.3696 25.0565 87.3395 24.7805 87.2537C24.5045 87.1679 24.2483 87.0282 24.0267 86.8426C23.8401 86.6693 23.6852 86.4648 23.5691 86.2381Z" fill="url(#paint4_linear_64_2134)"/>
</g>
<defs>
<filter id="filter0_f_64_2134" x="19.9838" y="10.4141" width="50.5144" height="80.212" filterUnits="userSpaceOnUse" color-interpolation-filters="sRGB">
<feFlood flood-opacity="0" result="BackgroundImageFix"/>
<feBlend mode="normal" in="SourceGraphic" in2="BackgroundImageFix" result="shape"/>
<feGaussianBlur stdDeviation="1.63702" result="effect1_foregroundBlur_64_2134"/>
</filter>
<radialGradient id="paint0_radial_64_2134" cx="0" cy="0" r="1" gradientUnits="userSpaceOnUse" gradientTransform="translate(62.8745 61.3007) rotate(60) scale(47.4954 47.4954)">
<stop offset="0"/>
<stop offset="0.96" stop-opacity="0"/>
</radialGradient>
<radialGradient id="paint1_radial_64_2134" cx="0" cy="0" r="1" gradientUnits="userSpaceOnUse" gradientTransform="translate(62.8745 61.3007) rotate(60) scale(47.4954 47.4954)">
<stop offset="0" stop-color="white"/>
<stop offset="0.16" stop-color="white" stop-opacity="0.78"/>
<stop offset="0.38" stop-color="white" stop-opacity="0.5"/>
<stop offset="0.58" stop-color="white" stop-opacity="0.29"/>
<stop offset="0.75" stop-color="white" stop-opacity="0.13"/>
<stop offset="0.88" stop-color="white" stop-opacity="0.04"/>
<stop offset="0.96" stop-color="white" stop-opacity="0"/>
</radialGradient>
<linearGradient id="paint2_linear_64_2134" x1="25.6995" y1="87.8463" x2="67.7919" y2="14.94" gradientUnits="userSpaceOnUse">
<stop offset="0" stop-opacity="0"/>
<stop offset="0.21875"/>
<stop offset="0.786458"/>
<stop offset="1" stop-opacity="0"/>
</linearGradient>
<linearGradient id="paint3_linear_64_2134" x1="66.1973" y1="14.0192" x2="25.6986" y2="87.8458" gradientUnits="userSpaceOnUse">
<stop offset="0" stop-color="#B2B2B2" stop-opacity="0"/>
<stop offset="0.411458" stop-color="white"/>
<stop offset="0.588542" stop-color="white"/>
<stop offset="1" stop-color="#B2B2B2" stop-opacity="0"/>
</linearGradient>
<linearGradient id="paint4_linear_64_2134" x1="66.48" y1="14.1825" x2="25.6986" y2="87.8458" gradientUnits="userSpaceOnUse">
<stop offset="0.0625" stop-color="#B2B2B2" stop-opacity="0"/>
<stop offset="0.5" stop-color="white"/>
<stop offset="0.9375" stop-color="#B2B2B2" stop-opacity="0"/>
</linearGradient>
</defs>
</svg>
