<svg width="66" height="92" viewBox="0 0 66 92" fill="none" xmlns="http://www.w3.org/2000/svg">
<path d="M33.2654 72.0446C23.7314 65.3162 17.0088 55.3127 14.3805 43.9433C11.7523 32.574 13.4026 20.635 19.0163 10.4049C21.6488 8.25851 24.5528 6.46857 27.6532 5.08131C42.5836 26.6052 53.5569 50.6187 60.0581 75.9945C56.4757 77.6402 52.6654 78.7355 48.7559 79.2433C43.2006 77.7975 37.9525 75.3587 33.2654 72.0446Z" fill="url(#paint0_radial_64_2085)"/>
<path d="M33.2654 72.0446C23.7314 65.3162 17.0088 55.3127 14.3805 43.9433C11.7523 32.574 13.4026 20.635 19.0163 10.4049C21.6488 8.25851 24.5528 6.46857 27.6532 5.08131C42.5836 26.6052 53.5569 50.6187 60.0581 75.9945C56.4757 77.6402 52.6654 78.7355 48.7559 79.2433C43.2006 77.7975 37.9525 75.3587 33.2654 72.0446Z" fill="url(#paint1_radial_64_2085)"/>
<g filter="url(#filter0_f_64_2085)">
<path d="M23.7564 4.83516C23.489 5.2009 23.342 5.6408 23.3358 6.09385C23.3297 6.54689 23.4647 6.99062 23.7221 7.36349C38.9594 29.1078 50.0848 53.4594 56.5473 79.2126C56.6905 79.7745 57.051 80.2566 57.5496 80.5527C58.0482 80.8488 58.644 80.9347 59.206 80.7915C59.7679 80.6484 60.25 80.2878 60.5461 79.7892C60.8422 79.2906 60.9281 78.6948 60.785 78.1328C54.2062 51.8634 42.8636 27.0239 27.3206 4.84787C27.159 4.60823 26.9514 4.40307 26.7099 4.24431C26.4683 4.08555 26.1977 3.97634 25.9136 3.92302C25.6295 3.86971 25.3376 3.87335 25.055 3.93373C24.7723 3.99412 24.5044 4.11004 24.2669 4.27478C24.0654 4.43037 23.8926 4.62002 23.7564 4.83516Z" fill="url(#paint2_linear_64_2085)"/>
</g>
<path style="mix-blend-mode:overlay" d="M23.7564 4.83516C23.489 5.2009 23.342 5.6408 23.3358 6.09385C23.3297 6.54689 23.4647 6.99062 23.7221 7.36349C38.9594 29.1078 50.0848 53.4594 56.5473 79.2126C56.6905 79.7745 57.051 80.2566 57.5496 80.5527C58.0482 80.8488 58.644 80.9347 59.206 80.7915C59.7679 80.6484 60.25 80.2878 60.5461 79.7892C60.8422 79.2906 60.9281 78.6948 60.785 78.1328C54.2062 51.8634 42.8636 27.0239 27.3206 4.84787C27.159 4.60823 26.9514 4.40307 26.7099 4.24431C26.4683 4.08555 26.1977 3.97634 25.9136 3.92302C25.6295 3.86971 25.3376 3.87335 25.055 3.93373C24.7723 3.99412 24.5044 4.11004 24.2669 4.27478C24.0654 4.43037 23.8926 4.62002 23.7564 4.83516Z" fill="url(#paint3_linear_64_2085)"/>
<g style="mix-blend-mode:overlay">
<path style="mix-blend-mode:overlay" d="M23.7564 4.83516C23.489 5.2009 23.342 5.6408 23.3358 6.09385C23.3297 6.54689 23.4647 6.99062 23.7221 7.36349C38.9594 29.1078 50.0848 53.4594 56.5473 79.2126C56.6905 79.7745 57.051 80.2566 57.5496 80.5527C58.0482 80.8488 58.644 80.9347 59.206 80.7915C59.7679 80.6484 60.25 80.2878 60.5461 79.7892C60.8422 79.2906 60.9281 78.6948 60.785 78.1328C54.2062 51.8634 42.8636 27.0239 27.3206 4.84787C27.159 4.60823 26.9514 4.40307 26.7099 4.24431C26.4683 4.08555 26.1977 3.97634 25.9136 3.92302C25.6295 3.86971 25.3376 3.87335 25.055 3.93373C24.7723 3.99412 24.5044 4.11004 24.2669 4.27478C24.0654 4.43037 23.8926 4.62002 23.7564 4.83516Z" fill="url(#paint4_linear_64_2085)"/>
</g>
<defs>
<filter id="filter0_f_64_2085" x="20.0614" y="0.611532" width="44.0652" height="83.5217" filterUnits="userSpaceOnUse" color-interpolation-filters="sRGB">
<feFlood flood-opacity="0" result="BackgroundImageFix"/>
<feBlend mode="normal" in="SourceGraphic" in2="BackgroundImageFix" result="shape"/>
<feGaussianBlur stdDeviation="1.63702" result="effect1_foregroundBlur_64_2085"/>
</filter>
<radialGradient id="paint0_radial_64_2085" cx="0" cy="0" r="1" gradientUnits="userSpaceOnUse" gradientTransform="translate(60.634 33.2369) rotate(-54.7914) scale(47.4954 47.4954)">
<stop offset="0"/>
<stop offset="0.96" stop-opacity="0"/>
</radialGradient>
<radialGradient id="paint1_radial_64_2085" cx="0" cy="0" r="1" gradientUnits="userSpaceOnUse" gradientTransform="translate(60.634 33.2369) rotate(-54.7914) scale(47.4954 47.4954)">
<stop offset="0" stop-color="white"/>
<stop offset="0.16" stop-color="white" stop-opacity="0.78"/>
<stop offset="0.38" stop-color="white" stop-opacity="0.5"/>
<stop offset="0.58" stop-color="white" stop-opacity="0.29"/>
<stop offset="0.75" stop-color="white" stop-opacity="0.13"/>
<stop offset="0.88" stop-color="white" stop-opacity="0.04"/>
<stop offset="0.96" stop-color="white" stop-opacity="0"/>
</radialGradient>
<linearGradient id="paint2_linear_64_2085" x1="26.0239" y1="3.42706" x2="61.324" y2="79.8536" gradientUnits="userSpaceOnUse">
<stop offset="0" stop-opacity="0"/>
<stop offset="0.21875"/>
<stop offset="0.786458"/>
<stop offset="1" stop-opacity="0"/>
</linearGradient>
<linearGradient id="paint3_linear_64_2085" x1="59.6523" y1="80.6257" x2="26.023" y2="3.42749" gradientUnits="userSpaceOnUse">
<stop offset="0" stop-color="#B2B2B2" stop-opacity="0"/>
<stop offset="0.411458" stop-color="white"/>
<stop offset="0.588542" stop-color="white"/>
<stop offset="1" stop-color="#B2B2B2" stop-opacity="0"/>
</linearGradient>
<linearGradient id="paint4_linear_64_2085" x1="59.9487" y1="80.4888" x2="26.023" y2="3.42749" gradientUnits="userSpaceOnUse">
<stop offset="0.0625" stop-color="#B2B2B2" stop-opacity="0"/>
<stop offset="0.5" stop-color="white"/>
<stop offset="0.9375" stop-color="#B2B2B2" stop-opacity="0"/>
</linearGradient>
</defs>
</svg>
