<svg width="65" height="65" viewBox="0 0 65 65" fill="none" xmlns="http://www.w3.org/2000/svg">
<g opacity="0.96" clip-path="url(#clip0_42458_2175)">
<g filter="url(#filter0_d_42458_2175)">
<path fill-rule="evenodd" clip-rule="evenodd" d="M32.5 1.08333C26.7149 1.08333 21.0597 2.79881 16.2496 6.01284C11.4394 9.22687 7.6904 13.7951 5.47654 19.1398C3.26267 24.4846 2.68343 30.3658 3.81204 36.0397C4.94066 41.7137 7.72645 46.9255 11.8171 51.0162C15.9078 55.1069 21.1197 57.8927 26.7936 59.0213C32.4676 60.1499 38.3488 59.5707 43.6935 57.3568C49.0382 55.1429 53.6065 51.3939 56.8205 46.5838C60.0345 41.7736 61.75 36.1184 61.75 30.3333C61.75 22.5757 58.6683 15.1359 53.1829 9.65045C47.6974 4.16502 40.2576 1.08333 32.5 1.08333V1.08333ZM35.75 48.2083H29.25V41.7083H35.75V48.2083ZM37.375 31.9583C36.9035 32.125 36.4946 32.4327 36.2039 32.8397C35.9132 33.2467 35.7548 33.7332 35.75 34.2333C35.75 34.5583 35.75 36.5083 35.75 36.8333H29.25V33.5833C29.1307 32.5181 29.3913 31.445 29.9859 30.5531C30.5805 29.6612 31.4708 29.0079 32.5 28.7083C33.5292 28.4087 34.4195 27.7554 35.0141 26.8636C35.6087 25.9717 35.8693 24.8986 35.75 23.8333C35.75 22.2083 35.75 20.5833 32.5 20.5833C29.25 20.5833 29.25 20.5833 29.25 23.8333H22.75C22.6529 22.5281 22.8385 21.2173 23.2942 19.9903C23.7498 18.7633 24.4648 17.6491 25.3903 16.7236C26.3158 15.7981 27.43 15.0831 28.657 14.6275C29.884 14.1718 31.1948 13.9862 32.5 14.0833C33.7926 14.0379 35.0808 14.2591 36.2842 14.733C37.4877 15.2069 38.5807 15.9235 39.4953 16.838C40.4099 17.7526 41.1264 18.8457 41.6004 20.0491C42.0743 21.2526 42.2954 22.5407 42.25 23.8333C42.3894 25.5274 41.994 27.2225 41.1195 28.68C40.245 30.1376 38.9354 31.2841 37.375 31.9583" fill="url(#paint0_linear_42458_2175)"/>
</g>
</g>
<defs>
<filter id="filter0_d_42458_2175" x="1.08333" y="1.08333" width="62.8333" height="62.8333" filterUnits="userSpaceOnUse" color-interpolation-filters="sRGB">
<feFlood flood-opacity="0" result="BackgroundImageFix"/>
<feColorMatrix in="SourceAlpha" type="matrix" values="0 0 0 0 0 0 0 0 0 0 0 0 0 0 0 0 0 0 127 0" result="hardAlpha"/>
<feOffset dy="2.16667"/>
<feGaussianBlur stdDeviation="1.08333"/>
<feComposite in2="hardAlpha" operator="out"/>
<feColorMatrix type="matrix" values="0 0 0 0 0 0 0 0 0 0 0 0 0 0 0 0 0 0 0.75 0"/>
<feBlend mode="normal" in2="BackgroundImageFix" result="effect1_dropShadow_42458_2175"/>
<feBlend mode="normal" in="SourceGraphic" in2="effect1_dropShadow_42458_2175" result="shape"/>
</filter>
<linearGradient id="paint0_linear_42458_2175" x1="32.5" y1="1.08333" x2="32.5" y2="59.5833" gradientUnits="userSpaceOnUse">
<stop stop-color="#B4B4B4"/>
<stop offset="1" stop-color="#4B5965"/>
</linearGradient>
<clipPath id="clip0_42458_2175">
<rect width="65" height="65" fill="white"/>
</clipPath>
</defs>
</svg>
