<svg width="24" height="24" viewBox="0 0 24 24" fill="none" xmlns="http://www.w3.org/2000/svg">
<rect width="24" height="24" fill="#000000"/>
<path fill-rule="evenodd" clip-rule="evenodd" d="M20.8361 2L8.472 4.36208V16.1077H7.34103V16.1312C6.78733 16.1371 6.21006 16.2373 5.63279 16.4788C3.7714 17.2563 2.74057 19.047 3.32962 20.4725C3.91867 21.898 5.90376 22.4164 7.76514 21.6388C9.30845 20.9909 10.2804 19.6479 10.2274 18.3932L10.2333 10.7061L19.069 9.10391V14.3346H17.9439V14.3582C17.3902 14.3641 16.8129 14.4642 16.2356 14.7057C14.3743 15.4833 13.3434 17.274 13.9325 18.6995C14.5215 20.125 16.5066 20.6433 18.368 19.8658C19.9584 19.1943 20.9421 17.7924 20.8243 16.5082L20.8361 2ZM19.069 7.34266L10.2274 9.06856V7.23663L19.069 5.56962V7.34266Z" fill="#F4F4F4"/>
</svg>
